<?xml version="1.0" encoding="UTF-8"?>
<svg version="1.1" xmlns="http://www.w3.org/2000/svg" width="500" height="500" fill="white">
<rect width="100%" height="100%" fill="#4ec9b0"/>
<path d="M0 0 C3.8082869 1.61406292 4.84305065 3.2037041 6.43359375 7.05078125 C6.70300781 7.73527344 6.97242188 8.41976562 7.25 9.125 C7.85562649 10.58749541 8.46511839 12.04839509 9.078125 13.5078125 C9.54895508 14.62978027 9.54895508 14.62978027 10.02929688 15.77441406 C11.54719623 19.25458774 13.26681383 22.62321748 15 26 C17.68514618 31.26345289 20.17579658 36.56758043 22.5 42 C25.07189889 47.99964067 27.8621527 53.84331655 30.81518555 59.66381836 C34.91923072 67.76962417 38.77988342 75.98992535 42.67041016 84.19970703 C44.93614069 88.97163675 47.21884889 93.73542821 49.5 98.5 C50.4258506 100.43616476 51.35163213 102.37236254 52.27734375 104.30859375 C54.03752327 107.98965124 55.80086719 111.66916683 57.56640625 115.34765625 C62.31994378 125.27005305 66.9414715 135.24167177 71.46557617 145.27075195 C74.17554012 151.25398995 77.04064499 157.13188163 80.0234375 162.984375 C82.82523457 168.58796913 85.38960607 174.30561324 88 180 C91.56364564 187.77225557 95.18918018 195.47559782 99.078125 203.08984375 C102.52132947 209.97432696 105.64080126 217.0230604 108.82617188 224.02929688 C109.32181641 225.11404297 109.81746094 226.19878906 110.328125 227.31640625 C110.99183105 228.77735718 110.99183105 228.77735718 111.66894531 230.26782227 C112.94810796 233.04652638 112.94810796 233.04652638 114.72949219 235.60522461 C116 238 116 238 115.57940674 240.14967346 C115.38820251 240.76028122 115.19699829 241.37088898 115 242 C107.54372316 242.12680254 100.08772445 242.21435293 92.63061523 242.2746582 C90.0940512 242.29979839 87.55755958 242.33391537 85.02124023 242.37719727 C81.37465549 242.43786661 77.72902868 242.46621574 74.08203125 242.48828125 C72.94852737 242.51408768 71.8150235 242.5398941 70.64717102 242.56648254 C62.74454816 242.56929616 62.74454816 242.56929616 58.83544922 239.58032227 C58.22975098 238.72881592 57.62405273 237.87730957 57 237 C56.52175781 236.41476562 56.04351562 235.82953125 55.55078125 235.2265625 C55.14214844 234.69804687 54.73351562 234.16953125 54.3125 233.625 C43.43552462 220.86600343 25.71236703 214.17570617 9.34619141 212.77246094 C-10.61612679 211.65110125 -28.51583919 215.34372896 -44.80859375 227.44921875 C-47 229 -47 229 -49.16015625 229.95703125 C-51.51879893 231.29409621 -51.84543208 232.57591271 -53 235 C-54.63423028 237.89339018 -56.2886888 240.04465619 -59 242 C-63.14323614 242.9630425 -67.16416801 242.81659474 -71.3984375 242.68359375 C-72.58853424 242.67368912 -73.77863098 242.66378448 -75.00479126 242.65357971 C-78.79612813 242.6144766 -82.58454212 242.52665049 -86.375 242.4375 C-88.94917687 242.4023814 -91.52339923 242.37044338 -94.09765625 242.34179688 C-100.39943033 242.26472735 -106.69950635 242.14767455 -113 242 C-113.33 241.34 -113.66 240.68 -114 240 C-113.07942605 237.5168729 -112.095414 235.15537921 -111 232.75 C-110.67676758 232.0269165 -110.35353516 231.30383301 -110.02050781 230.55883789 C-107.49261408 224.95705977 -104.77663551 219.46104661 -101.99609375 213.98046875 C-94.70018854 199.52688081 -87.95948554 184.79254407 -81.20922852 170.07910156 C-78.14697562 163.42390559 -74.96432658 156.86223857 -71.63671875 150.3359375 C-69.66307984 146.31329398 -67.85922917 142.22897607 -66.0625 138.125 C-63.58185549 132.46021802 -60.99870755 126.88325439 -58.1875 121.375 C-54.19916809 113.55899406 -50.55942857 105.59349825 -46.9440918 97.59912109 C-44.48300775 92.17128173 -41.93671872 86.80709405 -39.24829102 81.48828125 C-37.03948067 77.08534851 -34.93118394 72.63431514 -32.8125 68.1875 C-32.33546631 67.18759033 -31.85843262 66.18768066 -31.36694336 65.1574707 C-30.38424812 63.09733715 -29.40190649 61.03703488 -28.41992188 58.9765625 C-27.11110575 56.23290945 -25.79851748 53.49110482 -24.484375 50.75 C-20.90050695 43.26332988 -17.34316952 35.76742121 -13.8828125 28.22265625 C-13.35163818 27.06483643 -12.82046387 25.9070166 -12.27319336 24.71411133 C-11.24450363 22.46683209 -10.21907627 20.21805554 -9.19750977 17.9675293 C-6.38465822 11.81713685 -3.39864824 5.84853426 0 0 Z M0 99 C-0.47457642 100.10734497 -0.47457642 100.10734497 -0.95874023 101.23706055 C-1.90866194 103.45354453 -2.85861606 105.67001462 -3.80859375 107.88647461 C-4.9065598 110.44835372 -6.00417794 113.01038153 -7.1015625 115.57250977 C-9.52183728 121.22259587 -11.94264157 126.87240798 -14.37890625 132.515625 C-16.60269322 137.67001131 -18.80650709 142.83265321 -21 148 C-21.37469421 148.8808728 -21.37469421 148.8808728 -21.75695801 149.77954102 C-23.4441609 153.74760638 -25.12152747 157.71964064 -26.78833008 161.69631958 C-27.34374775 163.01815123 -27.90183261 164.3388655 -28.46264648 165.65841675 C-29.24551626 167.50222719 -30.01753913 169.3506318 -30.7890625 171.19921875 C-31.23975098 172.27002686 -31.69043945 173.34083496 -32.15478516 174.4440918 C-33.3176617 176.95252796 -33.3176617 176.95252796 -32 179 C-30.42412109 178.47599609 -30.42412109 178.47599609 -28.81640625 177.94140625 C-14.19154092 173.16006609 -14.19154092 173.16006609 -7 173 C-5.78699219 172.96132813 -4.57398438 172.92265625 -3.32421875 172.8828125 C10.15526142 172.58696879 22.16154302 175.08768914 35 179 C34.34622711 175.03718666 33.13861964 171.60896097 31.59375 167.90625 C31.10181152 166.72184326 30.60987305 165.53743652 30.10302734 164.31713867 C29.56884824 163.04469053 29.03450197 161.77231255 28.5 160.5 C27.95104738 159.18412045 27.4023847 157.86811991 26.85400391 156.55200195 C23.39107614 148.25493411 19.88547954 139.97596495 16.30810547 131.72753906 C14.25319889 126.97854623 12.26449975 122.20884747 10.328125 117.41015625 C9.87775879 116.30196533 9.42739258 115.19377441 8.96337891 114.05200195 C8.0866215 111.88889653 7.21875935 109.72215937 6.36083984 107.55151367 C5.96590332 106.58060791 5.5709668 105.60970215 5.1640625 104.609375 C4.81811035 103.74280273 4.4721582 102.87623047 4.11572266 101.98339844 C3.10141505 99.66058411 3.10141505 99.66058411 0 99 Z "  transform="translate(255,117)"/>
<path d="M0 0 C1.11988052 3.35964157 0.71980913 5.58090665 0 9 C0.33 9.66 0.66 10.32 1 11 C0.38125 11.144375 -0.2375 11.28875 -0.875 11.4375 C-3.03258322 11.93152225 -3.03258322 11.93152225 -5 13 C-4.54554036 11.58208592 -4.08625056 10.16571954 -3.625 8.75 C-3.24214844 7.56664062 -3.24214844 7.56664062 -2.8515625 6.359375 C-2.04826333 4.13372042 -1.10288338 2.09068328 0 0 Z "  transform="translate(188,257)"/>
<path d="M0 0 C0.66 1.32 1.32 2.64 2 4 C1.505 4.433125 1.01 4.86625 0.5 5.3125 C-1.33218192 6.99740483 -1.33218192 6.99740483 -1 10 C-1.66 10 -2.32 10 -3 10 C-3 10.66 -3 11.32 -3 12 C-3.66 12 -4.32 12 -5 12 C-4.54738642 10.56068883 -4.08767021 9.12361001 -3.625 7.6875 C-3.24214844 6.48673828 -3.24214844 6.48673828 -2.8515625 5.26171875 C-2 3 -2 3 0 0 Z "  transform="translate(213,205)"/>
<path d="M0 0 C2 3 2 3 2 6 C0.35 6.66 -1.3 7.32 -3 8 C-1.125 2.25 -1.125 2.25 0 0 Z "  transform="translate(242,143)"/>
</svg>
